<?xml version="1.0" encoding="UTF-8"?>
<svg id="svg1458" xmlns="http://www.w3.org/2000/svg" version="1.1" xmlns:svg="http://www.w3.org/2000/svg" viewBox="0 0 516 507">
  <!-- Generator: Adobe Illustrator 29.5.0, SVG Export Plug-In . SVG Version: 2.1.0 Build 137)  -->
  <defs>
    <style>
      .st0 {
        fill: none;
        stroke: #000;
        stroke-linecap: round;
        stroke-linejoin: round;
        stroke-width: 8px;
      }

      .st1 {
        fill: #bec8e5;
      }
    </style>
  </defs>
  <circle class="st1" cx="265.3" cy="258.3" r="233.6"/>
  <g>
    <g id="g2649">
      <g id="g2651">
        <g id="g2653">
          <g id="g2659">
            <path id="path2661" class="st0" d="M254.5,117.2c0,2.7-2.2,4.9-4.9,4.9s-4.9-2.2-4.9-4.9,2.2-4.9,4.9-4.9,4.9,2.2,4.9,4.9"/>
          </g>
          <g id="g2663">
            <path id="path2665" class="st0" d="M185.9,191.6h127.5"/>
          </g>
          <g id="g2667">
            <path id="path2669" class="st0" d="M185.9,221h127.5"/>
          </g>
          <g id="g2671">
            <path id="path2673" class="st0" d="M185.9,250.5h70.3"/>
          </g>
          <g id="g2675">
            <path id="path2677" class="st0" d="M185.9,280h46.8"/>
          </g>
          <g id="g2695">
            <path id="path2697" class="st0" d="M327.6,408.6h23.8c9.7,0,17.5-7.7,17.7-17.3"/>
          </g>
          <g id="g2699">
            <path id="path2701" class="st0" d="M198.1,126h-50.1c-9.8,0-17.7,7.9-17.7,17.7v247.2c0,9.8,7.9,17.7,17.7,17.7h166.2"/>
          </g>
          <g id="g2703">
            <path id="path2705" class="st0" d="M369.1,264v-120.3c0-9.8-7.9-17.7-17.7-17.7h-50.1"/>
          </g>
          <g id="g2707">
            <path id="path2709" class="st0" d="M341.1,233.5v-107.5"/>
          </g>
          <g id="g2711">
            <path id="path2713" class="st0" d="M158.2,126v244.1c0,5.2,4.2,9.4,9.4,9.4h68.9"/>
          </g>
          <g id="g2715">
            <path id="path2717" class="st0" d="M268.8,122.3v-4.8c0-10.6-8.6-19.1-19.1-19.1s-19.1,8.6-19.1,19.1v4.8c0,2-1.6,3.7-3.7,3.7h-28.7v23.5c0,3.5,2.8,6.3,6.3,6.3h90.4c3.5,0,6.3-2.8,6.3-6.3v-23.5h-28.7c-2,0-3.7-1.6-3.7-3.7Z"/>
          </g>
        </g>
      </g>
    </g>
    <g id="g1563">
      <g id="g1565">
        <g id="g1567">
          <g id="g1573">
            <path id="path1575" class="st0" d="M352.4,260.9c-12.3-8.5-27.3-13.4-43.4-13.4-42.4,0-76.8,34.4-76.8,76.8s34.4,76.8,76.8,76.8,76.8-34.4,76.8-76.8-5-31.2-13.6-43.6"/>
          </g>
          <g id="g1577">
            <path id="path1579" class="st0" d="M309,382.9c-32.4,0-58.7-26.3-58.7-58.7s26.3-58.7,58.7-58.7,58.7,26.3,58.7,58.7-26.3,58.7-58.7,58.7Z"/>
          </g>
          <g id="g1581">
            <path id="path1583" class="st0" d="M363.2,269.9h0"/>
          </g>
          <g id="g1585">
            <path id="path1587" class="st0" d="M314.9,325.2h-25.2"/>
          </g>
          <g id="g1589">
            <path id="path1591" class="st0" d="M327.4,306.7c-1-3.7-4.2-6.9-7.6-8.9-8-4.9-24.5-2.1-24.4,10.4,0,7.8,6.3,16.2,6.3,16.2l.6,5.3c.8,7,0,10.2-5.1,17.1l-4.6,6.1h35.9"/>
          </g>
        </g>
      </g>
    </g>
  </g>
</svg>