<?xml version="1.0" encoding="UTF-8"?>
<svg id="Line_Expand" xmlns="http://www.w3.org/2000/svg" version="1.1" viewBox="0 0 64 64">
  <!-- Generator: Adobe Illustrator 29.5.0, SVG Export Plug-In . SVG Version: 2.1.0 Build 137)  -->
  <defs>
    <style>
      .st0 {
        fill: #96a3aa;
      }

      .st1 {
        fill: #a89696;
      }

      .st2 {
        fill: #1a295a;
      }
    </style>
  </defs>
  <path class="st2" d="M29.5,60.8h5c1.2,0,2.2-1,2.2-2.2s-1-2.2-2.2-2.2h-5c-1.2,0-2.2,1-2.2,2.2s1,2.2,2.2,2.2ZM29.5,57.8h5c.4,0,.8.3.8.8s-.3.8-.8.8h-5c-.4,0-.8-.3-.8-.8s.3-.8.8-.8Z"/>
  <path class="st2" d="M42,59.2h2c.4,0,.8-.3.8-.8s-.3-.8-.8-.8h-2c-.4,0-.8.3-.8.8s.3.8.8.8Z"/>
  <path class="st2" d="M20,59.2h2c.4,0,.8-.3.8-.8s-.3-.8-.8-.8h-2c-.4,0-.8.3-.8.8s.3.8.8.8Z"/>
  <path class="st2" d="M30,4.8h4c.4,0,.8-.3.8-.8s-.3-.8-.8-.8h-4c-.4,0-.8.3-.8.8s.3.8.8.8Z"/>
  <path class="st2" d="M18.5,4.2c-1.2,0-2.2,1-2.2,2.2s1,2.2,2.2,2.2,2.2-1,2.2-2.2c0-1.2-1-2.2-2.2-2.2ZM18.5,7.2c-.4,0-.8-.3-.8-.8s.3-.8.8-.8.8.3.8.8c0,.4-.3.7-.8.8Z"/>
  <path class="st2" d="M46.8,19v-6c0-1.5-1.2-2.7-2.8-2.8h-20c-1.5,0-2.7,1.2-2.8,2.8v20c0,.4.3.8.8.8h20c.4,0,.8-.3.8-.8v-13.2h3.2c.4,0,.8-.3.8-.8ZM41.2,13v19.2h-18.5V13c0-.7.6-1.2,1.2-1.2h17.6c-.2.4-.3.8-.3,1.2ZM45.2,18.2h-2.5v-5.2c0-.7.6-1.2,1.2-1.2s1.2.6,1.2,1.2v5.2Z"/>
  <path class="st2" d="M26,16.8h12c.4,0,.8-.3.8-.8s-.3-.8-.8-.8h-12c-.4,0-.8.3-.8.8s.3.8.8.8Z"/>
  <path class="st2" d="M26,20.8h12c.4,0,.8-.3.8-.8s-.3-.8-.8-.8h-12c-.4,0-.8.3-.8.8s.3.8.8.8Z"/>
  <path class="st2" d="M26,24.8h12c.4,0,.8-.3.8-.8s-.3-.8-.8-.8h-12c-.4,0-.8.3-.8.8s.3.8.8.8Z"/>
  <path class="st2" d="M26,28.8h6c.4,0,.8-.3.8-.8s-.3-.8-.8-.8h-6c-.4,0-.8.3-.8.8s.3.8.8.8Z"/>
  <path class="st2" d="M61,33.2h-7.6l-1.7-2.5V5c0-2.6-2.1-4.7-4.8-4.8h-30c-2.6,0-4.7,2.1-4.8,4.8v25.8l-1.6,2.5H3c-1.5,0-2.8,1.2-2.8,2.8v12c0,1.5,1.2,2.8,2.8,2.8h9.2v8.2c0,2.6,2.1,4.7,4.8,4.8h30c2.6,0,4.7-2.1,4.8-4.8v-8.2h9.2c1.5,0,2.8-1.2,2.8-2.8v-12c0-1.5-1.2-2.8-2.8-2.8ZM38,1.8l-1,3c-.3.9-1.2,1.5-2.1,1.5h-5.7c-1,0-1.8-.6-2.1-1.5l-1-3h11.9ZM3,49.2c-.7,0-1.2-.6-1.2-1.2v-12c0-.7.6-1.2,1.2-1.2h8c.3,0,.5-.1.6-.3l2.6-3.9v3.5c0,.4.3.8.8.8h2c.7,0,1.2.6,1.2,1.2v12c0,.7-.6,1.2-1.2,1.2H3ZM50.2,59c0,1.8-1.5,3.2-3.2,3.2h-30c-1.8,0-3.2-1.5-3.2-3.2v-4.2h36.5v4.2ZM50.2,53.2H13.8v-2.5h3.2c1.5,0,2.8-1.2,2.8-2.8v-12c0-1.5-1.2-2.8-2.8-2.8h-1.2v-5.2c0-.4-.3-.7-.8-.7-.3,0-.5.1-.6.3l-.6.9V5c0-1.8,1.5-3.2,3.2-3.2h7.5l1.1,3.4c.5,1.5,1.9,2.6,3.6,2.6h5.7c1.6,0,3.1-1,3.6-2.6l1.1-3.4h7.5c1.8,0,3.2,1.5,3.2,3.2v23.5l-.6-.9c-.2-.3-.7-.4-1-.2-.2.1-.3.4-.3.6v5.2h-1.2c-1.5,0-2.8,1.2-2.8,2.8v12c0,1.5,1.2,2.8,2.8,2.8h3.2v2.5ZM62.2,48c0,.7-.6,1.2-1.2,1.2h-14c-.7,0-1.2-.6-1.2-1.2v-12c0-.7.6-1.2,1.2-1.2h2c.4,0,.8-.3.8-.8v-3.5l2.6,3.9c.1.2.4.3.6.3h8c.7,0,1.2.6,1.2,1.2v12Z"/>
  <path class="st0" d="M56,38l-3.4,3.4-.5-.5c-.9-.9-2.3-.9-3.2,0s-.9,2.3,0,3.2l2.1,2.1c.9.9,2.3.9,3.2,0l5-5c.9-.9.9-2.3,0-3.2s-2.3-.9-3.2,0ZM58.1,40.1l-5,5c-.3.3-.8.3-1.1,0l-2.1-2.1c-.3-.3-.3-.8,0-1.1.3-.3.8-.3,1.1,0,0,0,0,0,0,0l1.1,1.1c.3.3.8.3,1.1,0h0s3.9-3.9,3.9-3.9c.3-.3.8-.3,1.1,0,.3.3.3.8,0,1.1,0,0,0,0,0,0h0Z"/>
  <path class="st1" d="M14,38c-.9-.9-2.3-.9-3.2,0l-.9.9-.9-.9c-.9-.9-2.3-.9-3.2,0s-.9,2.3,0,3.2l.9.9-.9.9c-.9.9-.9,2.3,0,3.2s2.3.9,3.2,0l.9-.9.9.9c.9.9,2.3.9,3.2,0,.9-.9.9-2.3,0-3.2l-.9-.9.9-.9c.9-.9.9-2.3,0-3.2ZM13,40.1l-1.4,1.4c-.3.3-.3.8,0,1.1h0s1.4,1.4,1.4,1.4c.3.3.3.8,0,1.1-.3.3-.7.3-1,0l-1.4-1.4c-.3-.3-.8-.3-1.1,0,0,0,0,0,0,0l-1.4,1.4c-.3.3-.8.3-1.1,0-.3-.3-.3-.8,0-1l1.4-1.4c.3-.3.3-.8,0-1.1h0s-1.4-1.4-1.4-1.4c-.3-.3-.3-.8,0-1.1.3-.3.8-.3,1.1,0,0,0,0,0,0,0l1.4,1.4c.3.3.8.3,1.1,0,0,0,0,0,0,0l1.4-1.4c.3-.3.8-.3,1.1,0s.3.8,0,1.1c0,0,0,0,0,0Z"/>
</svg>