<?xml version="1.0" encoding="UTF-8"?>
<svg id="Capa_1" xmlns="http://www.w3.org/2000/svg" version="1.1" viewBox="0 0 512 512">
  <!-- Generator: Adobe Illustrator 29.5.0, SVG Export Plug-In . SVG Version: 2.1.0 Build 137)  -->
  <defs>
    <style>
      .st0 {
        fill: none;
        stroke: #1a295a;
        stroke-miterlimit: 10;
        stroke-width: 6px;
      }
    </style>
  </defs>
  <path class="st0" d="M323.8,372.7h145.1c19.7,0,35.6,16,35.6,35.6,0,38.5-31.2,69.8-69.8,69.8H77.3c-38.5,0-69.8-31.2-69.8-69.8s15.9-35.6,35.6-35.6h145.1"/>
  <path class="st0" d="M323.8,372.7c0,25-20.2,45.2-45.2,45.2h-45.2c-24.9,0-45.2-20.2-45.2-45.2h135.5Z"/>
  <circle class="st0" cx="436.7" cy="425.4" r="15.1"/>
  <circle class="st0" cx="369" cy="425.4" r="15.1"/>
  <path class="st0" d="M335.1,290.6c0,20.4-16.6,37-37,37h-84.2c-20.4,0-37-16.6-37-37v-69.1c0-20.4,16.6-37,37-37h84.2c20.4,0,37,16.6,37,37v69.1Z"/>
  <polyline class="st0" points="222.1 169.4 222.1 184.5 222.1 199.5"/>
  <path class="st0" d="M289.9,169.4v30.1"/>
  <line class="st0" x1="176.9" y1="237.2" x2="335.1" y2="237.2"/>
  <line class="st0" x1="214.6" y1="267.3" x2="222.1" y2="267.3"/>
  <line class="st0" x1="252.2" y1="267.3" x2="259.8" y2="267.3"/>
  <line class="st0" x1="289.9" y1="267.3" x2="297.4" y2="267.3"/>
  <line class="st0" x1="214.6" y1="297.4" x2="222.1" y2="297.4"/>
  <line class="st0" x1="252.2" y1="297.4" x2="259.8" y2="297.4"/>
  <line class="st0" x1="289.9" y1="297.4" x2="297.4" y2="297.4"/>
  <path class="st0" d="M444.3,116.7v4.5c0,18.3-14.9,33.1-33.1,33.1h-76.8c-18.3,0-33.1-14.9-33.1-33.1v-54.2c0-18.3,14.8-33.1,33.1-33.1h76.8c18.3,0,33.1,14.8,33.1,33.1v4.5"/>
  <path class="st0" d="M444.3,71.5l29.4-11c14.9-5.6,30.8,5.4,30.8,21.4v24.5c0,15.9-15.9,27-30.8,21.4-3-1.1,10.9,4.1-29.4-11v-45.2Z"/>
  <line class="st0" x1="346.4" y1="33.9" x2="346.4" y2="154.3"/>
  <path class="st0" d="M444.3,116.2c.2.2.4.5.6.7,13.7,15.6,22,36.1,22,58.5v197.3"/>
  <path class="st0" d="M45.2,372.7v-197.3c0-49.1,39.8-88.9,88.9-88.9h167.2"/>
  <path class="st0" d="M419.2,153.3c6.3,9.8,10,21.6,10,34.1v185.2"/>
  <line class="st0" x1="301.3" y1="124.2" x2="257.1" y2="124.2"/>
  <path class="st0" d="M82.8,293.6v-106.2c0-34.9,28.3-63.2,63.3-63.2h76.1"/>
  <line class="st0" x1="82.8" y1="372.7" x2="82.8" y2="328.6"/>
</svg>