<?xml version="1.0" encoding="UTF-8"?>
<svg id="Layer_1" xmlns="http://www.w3.org/2000/svg" version="1.1" viewBox="0 0 512 512">
  <!-- Generator: Adobe Illustrator 29.5.0, SVG Export Plug-In . SVG Version: 2.1.0 Build 137)  -->
  <defs>
    <style>
      .st0 {
        fill: #1a295a;
      }

      .st0, .st1 {
        fill-rule: evenodd;
      }

      .st2 {
        fill: #bec8e5;
      }

      .st1 {
        fill: #dbdbdb;
      }
    </style>
  </defs>
  <circle class="st2" cx="256" cy="256" r="247.5"/>
  <g>
    <path class="st1" d="M321.7,137.1v-35.3l49.9,49.9h-35.3c-8.1,0-14.6-6.6-14.6-14.6h0ZM385,336.7h0c1.2,1.9,2.7,4.4,1.4,6.6l-3.9,6.8-63.3-36.6,3.9-6.8c1-1.8,3.1-2.1,5.1-2.1s.9,0,1.2,0h0l9.4-.2c7.9-.2,14.8-3.9,19.3-10.4l11.1-15.9h0c1.1-2,1.3-4.3.5-6.4-2.2-6-1.6-12.7,1.6-18.3,2.9-5,7.6-8.6,13.2-10.1,5.6-1.5,11.5-.7,16.4,2.2,10.4,6,13.9,19.3,7.9,29.6-3.2,5.6-8.7,9.4-15.1,10.5-2.2.4-4.1,1.7-5.2,3.7h0l-8.5,17.9c-3.3,7.1-3.1,14.7.5,21.6l4.2,7.9h.1ZM381.2,352.3l-63.3-36.6-3.5,6c-.8,1.4-.3,3.1,1,3.9l58.5,33.8c1.3.7,3.1.3,3.9-1l3.5-6h0ZM126.5,265.8l-4.8-18.2c-.2-.7-.9-1.1-1.6-.9l-18.2,4.8,19.1-29.2,1.3,4.2c.8,2.6,2.6,4.8,5,6.2s5.2,1.8,7.9,1.2l4-.9c.1,0,.3,0,.5,0l3.7-.6-16.9,33.4h.1ZM174.4,232.9c.2,0,.4,0,.6,0l3.9.9c2.7.6,5.5.2,7.9-1.2,2.4-1.4,4.2-3.5,5-6.2l1.3-4.3,19.1,29.3-18.2-4.8c-.7-.2-1.4.3-1.6.9l-4.8,18.2-17-33.5,3.8.7h0ZM150.5,197c-1,.7-2.2,1-3.4.7-1.2-.3-2.2-.9-2.8-2l-9.3-15.2c-1.2-2-.6-4.7,1.4-5.8,2-1.2,4.7-.6,5.8,1.4l6.2,10c.2.3.5.5.9.6s.7,0,1-.3l22.7-16.6c1.9-1.4,4.6-1,6,.9s1,4.6-.9,6l-27.6,20.1h0Z"/>
    <path class="st0" d="M400.2,247.2c-4.6-2.6-9.9-3.3-14.9-2s-9.3,4.7-12,9.2c-2.9,5-3.5,11.1-1.4,16.6,1,2.7.7,5.6-.7,8,0,0,0,.1-.1.3l-11.1,15.9c-4.9,7.1-12.3,11.1-20.9,11.3l-9.4.2h-1.4c-2.2,0-3,.5-3.4,1.1l-2.9,5,59.9,34.6,2.9-5c.5-.8.4-1.8-1.4-4.5,0,0,0-.1-.1-.2l-4.1-7.8c-3.9-7.5-4.1-15.8-.5-23.4l8.5-17.9c0,0,0-.1.1-.3,1.4-2.5,3.8-4.1,6.6-4.6,5.8-1,10.7-4.5,13.7-9.6,5.4-9.4,2.2-21.5-7.2-26.9h0ZM376.1,357.4c-.3.4-.8.5-1.2.3l-58.4-33.8c-.4-.3-.6-.8-.3-1.2l2.5-4.3,59.9,34.6-2.5,4.3ZM371.4,397.4c0,6.9-5.7,12.6-12.6,12.6h-205.4c-6.9,0-12.6-5.7-12.6-12.6v-149.5l5.4-10.7,2.2,2c2.5,2.3,5.6,3.4,8.8,3.4s6.3-1.1,8.8-3.4l2.2-2,17,33.7c.6,1.1,1.7,1.8,2.9,1.8s.2,0,.3,0c1.4-.1,2.5-1.1,2.8-2.4l4.9-18.3,18.3,4.9c1.3.3,2.7-.1,3.5-1.2.8-1.1.9-2.6,0-3.7l-20.9-31.9c.6-.5,1.2-.8,2-1l3.9-1.2c6.4-2,10.3-8.7,8.8-15.2l-.9-4c-.5-2.2,0-4.1,1.6-5.7l2.8-2.9c4.6-4.9,4.6-12.6,0-17.6l-2.8-3c-1.5-1.6-2-3.6-1.5-5.7l.9-3.9c1.5-6.6-2.4-13.2-8.8-15.2l-3.9-1.2c-2.1-.7-3.5-2.1-4.2-4.2l-1.2-3.9c-2-6.4-8.7-10.3-15.2-8.8l-4,.9c-2.2.5-4.1,0-5.7-1.5l-2.9-2.8c-4.9-4.6-12.6-4.6-17.6,0l-3,2.8c-1.3,1.2-2.9,1.8-4.5,1.7v-12.9c0-6.9,5.7-12.6,12.6-12.6h163.7v35.1c0,10.6,8.6,19.2,19.2,19.2h35.1v89.7c-1.4,1.5-2.7,3.2-3.8,5-3.9,6.8-4.6,14.8-1.9,22.2.3.9.3,1.6-.1,2.4l-11,15.8c-3.7,5.4-9.2,8.3-15.7,8.5l-9.2.2c-2.4-.1-7.7-.3-10.5,4.3l-8.7,15c-2,3.5-.9,8.1,2.7,10.2l58.2,33.6v34.1h.1ZM140,234.9c-.1,0-.3,0-.4,0l-4,.9c-6.6,1.5-13.2-2.4-15.2-8.8v-.2c0,0-14.1,21.5-14.1,21.5l13.2-3.5c1.8-.5,3.5.6,4,2.3l3.5,13.2,12.9-25.4h0ZM178.5,235.8l-3.9-.9c-.1,0-.3,0-.5,0l12.9,25.5,3.5-13.2c.5-1.8,2.3-2.8,4-2.3l13.2,3.5-14-21.4v.2c-2,6.4-8.7,10.2-15.3,8.8h0ZM117,212.7c4.1,1.2,7.3,4.4,8.5,8.5l1.2,3.9c1,3.2,4.2,5,7.5,4.3l4-.9c1-.3,2-.3,2.9-.3,3.2,0,6.3,1.2,8.7,3.5l2.9,2.8c2.4,2.3,6.2,2.3,8.6,0l3-2.8c3.1-2.9,7.4-4.1,11.7-3.1l3.9.9c3.3.7,6.5-1.1,7.5-4.3l1.2-3.9c1.2-4.1,4.4-7.3,8.5-8.5l3.9-1.2c3.2-1,5-4.2,4.3-7.5l-.9-4c-1-4.2.2-8.5,3.1-11.7l2.8-2.9c2.3-2.4,2.3-6.2,0-8.6l-2.8-3c-2.9-3.1-4.1-7.4-3.1-11.7l.9-3.9c.7-3.3-1.1-6.5-4.3-7.5l-3.9-1.2c-4.1-1.2-7.3-4.4-8.5-8.5l-1.2-3.9c-1-3.2-4.2-5-7.5-4.3l-4,.9c-4.2,1-8.5-.2-11.7-3.1l-2.9-2.8c-2.5-2.3-6.2-2.3-8.7,0l-3,2.8c-3.1,2.9-7.4,4.1-11.7,3.1l-3.9-.9c-3.3-.7-6.5,1.1-7.5,4.3l-1.2,3.9c-1.3,4.1-4.4,7.3-8.5,8.5l-3.9,1.2c-3.2,1-5,4.2-4.3,7.5l.9,4c1,4.2-.2,8.5-3.1,11.7l-2.8,2.9c-2.3,2.4-2.3,6.2,0,8.6l2.8,3c2.9,3.2,4.1,7.4,3.1,11.7l-.9,3.9c-.7,3.3,1.1,6.5,4.3,7.5l3.9,1.2h0ZM323.6,137.1c0,7,5.7,12.6,12.6,12.6h30.5l-43.1-43.1v30.5h0ZM413.1,277.4c-3.9,6.8-10.6,11.4-18.2,12.7-.9.1-1.5.6-2,1.3l-8.4,17.8c-2.8,5.8-2.6,11.9.4,17.6l4.1,7.7c1.4,2.2,4.1,6.6,1.4,11.2l-8.7,15c-.9,1.5-2.2,2.6-3.8,3.2v33.5c0,10.6-8.6,19.2-19.2,19.2h-205.4c-10.6,0-19.2-8.6-19.2-19.2v-136.5l-5.1,10.1c-.6,1.1-1.7,1.8-2.9,1.8s-.2,0-.3,0c-1.4-.1-2.5-1.1-2.8-2.4l-4.9-18.3-18.3,4.9c-1.3.3-2.7-.1-3.5-1.2-.8-1.1-.9-2.6,0-3.7l20.8-31.9c-.6-.4-1.2-.7-2-1l-3.9-1.2c-6.4-2-10.2-8.7-8.8-15.2l.9-3.9c.5-2.1,0-4.1-1.5-5.7l-2.8-3c-4.6-4.9-4.5-12.6,0-17.6l2.8-2.9c1.5-1.6,2-3.6,1.5-5.7l-.9-4c-1.5-6.6,2.4-13.2,8.8-15.2l3.9-1.2c2.1-.7,3.5-2.1,4.2-4.2l1.2-3.9c1.8-6,7.7-9.7,13.8-9v-11.6c0-10.6,8.7-19.2,19.2-19.2h167c.9,0,1.7.3,2.3,1l54.3,54.3c.6.6,1,1.4,1,2.3v88c1.8-.9,3.6-1.7,5.6-2.2,6.8-1.8,13.8-.9,19.9,2.6,12.5,7.2,16.8,23.3,9.6,35.8h0ZM136.7,179.5l9.3,15.2c.3.6.9.9,1.5,1,.7.1,1.3,0,1.8-.4l27.5-20.1c1-.7,1.2-2.2.5-3.2-.7-1-2.2-1.2-3.2-.5l-22.7,16.6c-.7.5-1.6.7-2.6.6s-1.7-.7-2.2-1.5l-6.2-10c-.7-1.1-2.1-1.4-3.1-.8s-1.4,2.1-.8,3.1h0ZM140.4,198.1c1.2,2.1,3.4,3.5,5.8,4.1.6.1,1.2.2,1.8.2,1.8,0,3.7-.6,5.2-1.7l27.6-20.1c3.9-2.9,4.8-8.5,1.9-12.4-2.9-3.9-8.5-4.8-12.4-1.9l-19.8,14.5-4.3-7c-2.6-4.1-8-5.5-12.1-2.9-4.1,2.6-5.5,8-2.9,12.2q1.7,2.8,0,0l9.3,15.2h0ZM121.5,181.2c0,19.6,15.9,35.6,35.6,35.6s35.6-16,35.6-35.6-16-35.6-35.6-35.6-35.6,16-35.6,35.6h0ZM114.9,181.2c0,23.2,18.9,42.1,42.1,42.1s42.1-18.9,42.1-42.1-18.9-42.1-42.1-42.1-42.1,18.9-42.1,42.1h0ZM245.2,259.3c-1.8,0-3.3-1.4-3.3-3.3s1.4-3.3,3.3-3.3h93.8c1.8,0,3.3,1.4,3.3,3.3s-1.4,3.3-3.3,3.3h-93.8ZM245.2,227.8h93.8c1.8,0,3.3-1.4,3.3-3.3s-1.4-3.3-3.3-3.3h-93.8c-1.8,0-3.3,1.4-3.3,3.3s1.4,3.3,3.3,3.3ZM168,290.7h143.1c1.8,0,3.3-1.4,3.3-3.3s-1.4-3.3-3.3-3.3h-143.1c-1.8,0-3.3,1.4-3.3,3.3s1.4,3.3,3.3,3.3ZM245.2,196.4h93.8c1.8,0,3.3-1.4,3.3-3.3s-1.4-3.3-3.3-3.3h-93.8c-1.8,0-3.3,1.4-3.3,3.3s1.4,3.3,3.3,3.3ZM168,322.2h124.1c1.8,0,3.3-1.4,3.3-3.3s-1.4-3.3-3.3-3.3h-124.1c-1.8,0-3.3,1.4-3.3,3.3s1.4,3.3,3.3,3.3ZM313.7,347.1h-145.6c-1.8,0-3.3,1.4-3.3,3.3s1.4,3.3,3.3,3.3h145.6c1.8,0,3.3-1.4,3.3-3.3s-1.4-3.3-3.3-3.3ZM241.9,161.6c0,1.8,1.4,3.3,3.3,3.3h46.9c1.8,0,3.3-1.4,3.3-3.3s-1.4-3.3-3.3-3.3h-46.9c-1.8,0-3.3,1.4-3.3,3.3Z"/>
  </g>
</svg>