<?xml version="1.0" encoding="UTF-8"?>
<svg id="Layer_1" xmlns="http://www.w3.org/2000/svg" version="1.1" viewBox="0 0 512 512">
  <!-- Generator: Adobe Illustrator 29.5.0, SVG Export Plug-In . SVG Version: 2.1.0 Build 137)  -->
  <defs>
    <style>
      .st0 {
        fill: #bec8e5;
      }

      .st1 {
        fill: #1a295a;
      }
    </style>
  </defs>
  <circle class="st0" cx="256.5" cy="256" r="247.5"/>
  <g id="Layer_2">
    <path class="st1" d="M261.8,355.8h-11.7c-3.2,0-5.9,2.6-5.9,5.9s2.6,5.9,5.9,5.9h11.7c3.2,0,5.9-2.6,5.9-5.9s-2.6-5.9-5.9-5.9Z"/>
    <path class="st1" d="M279.4,209c-3.2,0-5.9,2.6-5.9,5.9v5.9c0,3.2,2.6,5.9,5.9,5.9s5.9-2.6,5.9-5.9v-5.9c0-3.2-2.6-5.9-5.9-5.9Z"/>
    <path class="st1" d="M232.4,209c-3.2,0-5.9,2.6-5.9,5.9v5.9c0,3.2,2.6,5.9,5.9,5.9s5.9-2.6,5.9-5.9v-5.9c0-3.2-2.6-5.9-5.9-5.9Z"/>
    <path class="st1" d="M97.3,250.1h35.2c3.2,0,5.9-2.6,5.9-5.9s-2.6-5.9-5.9-5.9h-35.2c-3.2,0-5.9,2.6-5.9,5.9s2.6,5.9,5.9,5.9Z"/>
    <path class="st1" d="M132.6,273.6c3.2,0,5.9-2.6,5.9-5.9s-2.6-5.9-5.9-5.9h-35.2c-3.2,0-5.9,2.6-5.9,5.9s2.6,5.9,5.9,5.9h35.2Z"/>
    <path class="st1" d="M426.3,291.2c9.8,0,17.6-7.9,17.6-17.6v-35.2c0-9.8-7.9-17.6-17.6-17.6h-5.9v-52.9c0-16.2-13.1-29.4-29.4-29.4h-82.7c-25.8-28.9-70.1-31.5-99-5.7-2,1.8-4,3.7-5.7,5.7h-82.7c-16.2,0-29.4,13.1-29.4,29.4v52.9h-5.9c-9.8,0-17.6,7.9-17.6,17.6v35.2c0,9.8,7.9,17.6,17.6,17.6h5.9v47h-5.9c-9.8,0-17.6,7.9-17.6,17.6,0,22.7,18.4,41.1,41.1,41.1h293.7c22.7,0,41.1-18.4,41.1-41.1s-7.9-17.6-17.6-17.6h-5.9v-47h5.9,0ZM432.1,238.4v35.2c0,3.2-2.6,5.9-5.9,5.9h-65.6c-1.5,0-3.1-.6-4.2-1.7l-10.2-10.2c8.8-1.2,15.3-8.6,15.3-17.5v-11.7c0-3.2,2.6-5.9,5.9-5.9h58.7c3.2,0,5.9,2.6,5.9,5.9h0ZM308.8,214.9v-23.5c6.5,0,11.7,5.3,11.7,11.7s-5.3,11.7-11.7,11.7ZM278,338.2l-10.1-35.3,4.4-17.5h18.9c29.1,0,52.9,23.7,52.9,52.9h-66.1ZM167.8,338.2c0-29.1,23.7-52.9,52.9-52.9h18.9l4.4,17.5-10.1,35.3h-66.1ZM260.2,285.4l-2.9,11.7h-2.6l-2.9-11.7h8.4ZM254.5,308.9h2.9l8.4,29.4h-19.7l8.4-29.4h0ZM255.9,273.6c-13.4,0-26-6.6-33.7-17.6h33.7c3.2,0,5.9-2.6,5.9-5.9s-2.6-5.9-5.9-5.9h-39.4c-1.2-3.8-1.8-7.8-1.8-11.7v-29.4h42.1c4.7,0,9.2-1.8,12.5-5.1l4.2-4.2,4.2,4.2c3.3,3.3,7.8,5.2,12.5,5.1h6.9v29.4c0,22.7-18.4,41.1-41.1,41.1h-.1ZM297,191.4h-6.9c-1.5,0-3.1-.6-4.2-1.7l-8.3-8.3c-2.3-2.3-6-2.3-8.3,0l-8.3,8.3c-1.1,1.1-2.6,1.7-4.2,1.7h-42.1v-5.9c0-22.7,18.4-41.1,41.1-41.1s41.1,18.4,41.1,41.1v5.9h0ZM203.1,197.3v17.6c-6.5,0-11.7-5.3-11.7-11.7s5.3-11.7,11.7-11.7v5.9ZM197.2,225.8c1.9.5,3.9.8,5.9.8v5.9c0,2.6.2,5.1.6,7.7-4.1-3.3-6.5-8.3-6.5-13.6v-.8ZM255.9,126.8c30.4,0,55.8,23.3,58.4,53.6-1.8-.5-3.7-.7-5.6-.7h-.4c-3.3-29-29.6-49.8-58.6-46.5-24.4,2.8-43.7,22.1-46.5,46.5h-.4c-1.9,0-3.7.3-5.6.7,2.6-30.3,28-53.6,58.4-53.6h0ZM79.7,273.6v-35.2c0-3.2,2.6-5.9,5.9-5.9h58.7c3.2,0,5.9,2.6,5.9,5.9v11.7c0,8.9,6.5,16.3,15.3,17.5l-10.2,10.2c-1.1,1.1-2.6,1.7-4.2,1.7h-65.6c-3.2,0-5.9-2.6-5.9-5.9h0ZM103.2,291.2h48c4.7,0,9.2-1.8,12.5-5.1l20-20c2.3-2.3,2.3-6,0-8.3-1.1-1.1-2.6-1.7-4.2-1.7h-11.7c-3.2,0-5.9-2.6-5.9-5.9v-11.7c0-9.8-7.9-17.6-17.6-17.6h-41.1v-52.9c0-9.8,7.9-17.6,17.6-17.6h74.2c-2.2,3.7-4,7.6-5.4,11.7h-57c-9.8,0-17.6,7.9-17.6,17.6v23.5c0,3.2,2.6,5.9,5.9,5.9s5.9-2.6,5.9-5.9v-23.5c0-3.2,2.6-5.9,5.9-5.9h53.9c-.7,3.9-1,7.8-1,11.7v2.3c-7.9,8.7-7.9,22,0,30.8v8.1c0,13.7,9.5,25.5,22.8,28.6,3.4,7.1,8.4,13.4,14.5,18.4h-2.1c-35.7,0-64.5,28.9-64.6,64.6h-29.4v-29.4c0-3.2-2.6-5.9-5.9-5.9s-5.9,2.6-5.9,5.9v29.4h-11.7v-47h0ZM432.1,355.8c0,16.2-13.1,29.4-29.4,29.4H109.1c-16.2,0-29.4-13.1-29.4-29.4s2.6-5.9,5.9-5.9h340.7c3.2,0,5.9,2.6,5.9,5.9ZM408.6,338.2h-11.7v-29.4c0-3.2-2.6-5.9-5.9-5.9s-5.9,2.6-5.9,5.9v29.4h-29.4c0-35.7-28.9-64.5-64.6-64.6h-2.1c12.5-10,19.7-25.1,19.7-41.1v-5.9c12.9,0,23.4-10.4,23.5-23.3,0-5.7-2.1-11.3-5.9-15.6v-2.3c0-4-.4-7.9-1-11.7h53.9c3.2,0,5.9,2.6,5.9,5.9v23.5c0,3.2,2.6,5.9,5.9,5.9s5.9-2.6,5.9-5.9v-23.5c0-9.8-7.9-17.6-17.6-17.6h-57c-1.5-4.1-3.2-8-5.4-11.7h74.2c9.8,0,17.6,7.9,17.6,17.6v52.9h-41.1c-9.8,0-17.6,7.9-17.6,17.6v11.7c0,3.2-2.6,5.9-5.9,5.9h-11.7c-3.2,0-5.9,2.6-5.9,5.9s.6,3.1,1.7,4.2l20,20c3.3,3.3,7.8,5.2,12.5,5.1h48v47h0Z"/>
    <path class="st1" d="M379.3,238.4c-3.2,0-5.9,2.6-5.9,5.9s2.6,5.9,5.9,5.9h35.2c3.2,0,5.9-2.6,5.9-5.9s-2.6-5.9-5.9-5.9h-35.2Z"/>
    <path class="st1" d="M414.5,261.9h-35.2c-3.2,0-5.9,2.6-5.9,5.9s2.6,5.9,5.9,5.9h35.2c3.2,0,5.9-2.6,5.9-5.9s-2.6-5.9-5.9-5.9Z"/>
  </g>
</svg>