<?xml version="1.0" encoding="UTF-8"?>
<svg id="Layer_1" xmlns="http://www.w3.org/2000/svg" version="1.1" viewBox="0 0 512 512">
  <!-- Generator: Adobe Illustrator 29.5.0, SVG Export Plug-In . SVG Version: 2.1.0 Build 137)  -->
  <defs>
    <style>
      .st0 {
        fill: #bec8e5;
      }

      .st1 {
        fill: #1a295a;
      }
    </style>
  </defs>
  <circle class="st0" cx="256.5" cy="256" r="247.5"/>
  <g>
    <g id="outline">
      <path class="st1" d="M151.5,421h209c15.2,0,27.5-12.3,27.5-27.5V96.5c0-3-2.5-5.5-5.5-5.5h-176c-1.4,0-2.9.5-3.9,1.6l-55,55c-1,1-1.6,2.4-1.6,3.8v214.5h-22v27.5c0,15.2,12.3,27.5,27.5,27.5ZM333,102h22v25.2l-7.1-7.1c-2.1-2.1-5.6-2.1-7.8,0l-7.1,7.1v-25.2h0ZM201,109.8v36.2h-36.2l36.2-36.2ZM157,157h49.5c3,0,5.5-2.5,5.5-5.5v-49.5h110v38.5c0,3,2.5,5.5,5.5,5.5s2.9-.6,3.9-1.6l12.6-12.6,12.6,12.6c1,1,2.4,1.6,3.9,1.6s1.4-.1,2.1-.4c2.1-.8,3.4-2.9,3.4-5.1v-38.5h11v291.5c0,9.1-7.4,16.5-16.5,16.5s-16.5-7.4-16.5-16.5v-27.5h-187v-209ZM135,377h198v16.5c0,6,1.9,11.8,5.5,16.5h-187c-9.1,0-16.5-7.4-16.5-16.5v-16.5Z"/>
      <path class="st1" d="M228.5,205.1c9.1,0,16.5-7.4,16.5-16.5v-11c0-.7-.1-1.4-.4-2.1l-8-19.9h19.4v60.5h-22v11h55v-11h-22v-60.5h19.4l-8,19.9c-.3.6-.4,1.3-.4,2.1v11c0,9.1,7.4,16.5,16.5,16.5s16.5-7.4,16.5-16.5v-11c0-.7-.1-1.4-.4-2.1l-12.4-30.9h-31.2v-11h11v-11h-33v11h11v11h-31.2l-12.4,30.9c-.3.6-.4,1.3-.4,2.1v11c0,9.1,7.4,16.5,16.5,16.5h0ZM294.5,164.9l2.9,7.2h-5.8l2.9-7.2h0ZM289,183.1h11v5.5c0,3-2.5,5.5-5.5,5.5s-5.5-2.5-5.5-5.5v-5.5ZM228.5,164.9l2.9,7.2h-5.8l2.9-7.2ZM223,183.1h11v5.5c0,3-2.5,5.5-5.5,5.5s-5.5-2.5-5.5-5.5v-5.5Z"/>
      <path class="st1" d="M358.4,327.9l-21.8,8.7c-1-1.6-2.3-2.9-3.9-3.8-4.5-2-9.6-2.2-14.3-.5,1.4-3.6,1.2-7.8-.6-11.2-4.5-7.4-15.3-5.2-18.9-4.5-10.2,2.1-16.6,6.5-19.2,13.1-4.1,10.7,3.9,21.8,4.9,23l8.8-6.6c-1.4-1.9-5-8.3-3.4-12.5,1.4-3.6,6.8-5.4,11.1-6.3,2.3-.7,4.9-.8,7.3-.4-1.3,5-3.7,9.7-7.1,13.6-1.9,2.3-1.5,5.8.8,7.7,1.8,1.4,4.3,1.6,6.3.4,8.2-5,17.1-7.5,18.9-6.4.2.5.3,1.1.3,1.7,0,3,2.5,5.5,5.5,5.5s1.4-.1,2.1-.4l27.5-11-4.1-10.2h-.1Z"/>
      <path class="st1" d="M173.5,238.8h115.5v11h-115.5v-11Z"/>
      <path class="st1" d="M300,238.8h60.5v11h-60.5v-11Z"/>
      <path class="st1" d="M173.5,260.8h71.5v11h-71.5v-11Z"/>
      <path class="st1" d="M256,260.8h104.5v11h-104.5v-11Z"/>
      <path class="st1" d="M300,289h33v11h-33v-11Z"/>
    </g>
    <g>
      <path class="st1" d="M251.7,314.2h-28.3v-28.3c0-4.5-3.7-8.2-8.2-8.2h-33.3c-4.5,0-8.2,3.7-8.2,8.2h0v33.2c0,4.5,3.6,8.2,8.2,8.2h28.4v28.4c0,4.5,3.6,8.2,8.2,8.2h33.2c4.5,0,8.2-3.6,8.2-8.2h0v-33.2c0-4.5-3.6-8.2-8.2-8.2h0ZM210.3,322.4h0v1.1h-28.4c-2.4,0-4.4-2-4.4-4.5v-33.2c0-2.5,1.9-4.5,4.4-4.5h33.2c2.5,0,4.5,2,4.5,4.5v28.4h-1.2c-4.5,0-8.2,3.7-8.2,8.2h0ZM256.2,355.6c0,2.5-2.1,4.4-4.5,4.4h-33.2c-2.4,0-4.4-2-4.4-4.4v-33.2c0-2.5,1.9-4.5,4.4-4.5h33.2c2.5,0,4.5,2,4.5,4.5v33.2Z"/>
      <path class="st1" d="M246.2,350.7l-9.3-24.6c-.5-1-1.6-1.4-2.6-.9-.4.2-.8.5-.9.9l-9.1,24.6c-.3,1,.1,2.1,1.1,2.4,1,.3,2.1-.1,2.4-1.1l2.2-5.9h10.4l2.2,5.9c.3.8,1,1.2,1.8,1.2s1.9-.8,1.9-1.9,0-.4-.1-.6h0ZM231.3,342.4l3.7-10.3,3.7,10.3h-7.5,0Z"/>
      <path class="st1" d="M210.4,314.3c-3.2,0-6.3-.9-8.9-2.6,3.3-3.4,5.3-7.8,5.8-12.5h3.2c1,0,1.9-.8,1.9-1.9s-.8-1.9-1.9-1.9h-10v-6.8c0-1-.8-1.9-1.9-1.9s-1.9.8-1.9,1.9v6.8h-10c-1,0-1.9.8-1.9,1.9s.8,1.9,1.9,1.9h3.2c.4,4.7,2.5,9.1,5.8,12.5-2.7,1.6-5.8,2.5-8.9,2.6-1,0-1.9.8-1.9,1.9s.8,1.9,1.9,1.9c4.3,0,8.4-1.3,11.9-3.7,3.4,2.4,7.6,3.7,11.8,3.7s1.9-.8,1.9-1.9-.8-1.9-1.9-1.9h-.1ZM193.6,299.2h9.8c-.4,3.9-2.1,7.5-4.9,10.2-2.8-2.8-4.5-6.4-4.9-10.2h0Z"/>
      <path class="st1" d="M259.9,305.8c0-15.5-12.5-28-28.1-28.2-1,0-1.9.8-1.9,1.9s.8,1.9,1.9,1.9c13,0,23.7,10.2,24.3,23.2h-6.2c-1,0-1.9.8-1.9,1.9s.8,1.9,1.9,1.9h8c1,0,1.9-.8,1.9-1.9v-.7h0Z"/>
      <path class="st1" d="M201.9,360.1c-13,0-23.7-10.2-24.3-23.2h6.1c1,0,1.9-.8,1.9-1.9s-.8-1.9-1.9-1.9h-7.9c-1,0-1.9.8-1.9,1.9v.5c0,15.5,12.5,28.1,28.1,28.2,1,0,1.9-.8,1.9-1.9s-.8-1.9-1.9-1.9h0Z"/>
    </g>
  </g>
</svg>