<?xml version="1.0" encoding="UTF-8"?>
<svg id="Capa_1" xmlns="http://www.w3.org/2000/svg" version="1.1" viewBox="0 0 512 512">
  <!-- Generator: Adobe Illustrator 29.5.0, SVG Export Plug-In . SVG Version: 2.1.0 Build 137)  -->
  <defs>
    <style>
      .st0 {
        fill: none;
        stroke: #1a295a;
        stroke-miterlimit: 10;
        stroke-width: 9px;
      }

      .st1 {
        fill: #bec8e5;
      }
    </style>
  </defs>
  <circle class="st1" cx="256.5" cy="256" r="247.5"/>
  <g>
    <path class="st0" d="M144.9,284.2V98.3c0-6,4.9-11,11-11h231.8c6,0,11,4.9,11,11v32.8"/>
    <line class="st0" x1="144.9" y1="376.7" x2="144.9" y2="308"/>
    <path class="st0" d="M398.6,154.8v243.9c0,14.4-11.7,26.1-26.1,26.1"/>
    <path class="st0" d="M288.9,376.7h50.8c3.8,0,6.9,3.1,6.9,6.9v15.1c0,14.4,11.7,26.1,26.1,26.1h-233.3c-14.4,0-26.1-11.7-26.1-26.1v-15.1c0-3.8,3.1-6.9,6.9-6.9h145"/>
    <path class="st0" d="M191.5,133.9h160.5c3.1,0,5.5-2.4,5.5-5.5v-9.6c0-3.1-2.4-5.5-5.5-5.5h-160.5c-3.1,0-5.5,2.4-5.5,5.5v9.6c0,3.1,2.4,5.5,5.5,5.5Z"/>
    <line class="st0" x1="350.6" y1="161.3" x2="192.9" y2="161.3"/>
    <line class="st0" x1="367.8" y1="188.8" x2="175.7" y2="188.8"/>
    <line class="st0" x1="367.8" y1="216.2" x2="175.7" y2="216.2"/>
    <line class="st0" x1="256" y1="349.4" x2="175.7" y2="349.4"/>
    <path class="st0" d="M248,327.8c-7.3,0-13.4-20.8-20.8-20.8s-13.4,20.8-20.8,20.8-7.1-10.9-10.9-10.9-11.9,11.9-11.9,11.9"/>
    <rect class="st0" x="295.8" y="328.9" width="61.7" height="20.6"/>
    <path class="st0" d="M326.6,328.9h34.3v-3.2c0-2.3-1.2-4.4-3.1-5.7l-14.9-10c-1.6-1.1-2.7-2.8-3-4.8l-2.3-16.4c-.7-5.4.7-10.8,4.3-14.8,3.3-3.7,5.3-8.5,5.3-13.8,0-11.3-9.2-20.6-20.6-20.6s-20.6,9.2-20.6,20.6,2,10.1,5.3,13.8c3.6,4,5.1,9.5,4.3,14.8l-2.3,16.4c-.3,1.9-1.4,3.7-3,4.8l-14.9,10c-1.9,1.3-3.1,3.4-3.1,5.7v3.2h34.3-.1Z"/>
    <line class="st0" x1="361" y1="328.9" x2="367.8" y2="328.9"/>
    <line class="st0" x1="292.3" y1="328.9" x2="285.4" y2="328.9"/>
  </g>
</svg>