<?xml version="1.0" encoding="UTF-8"?>
<svg id="a" xmlns="http://www.w3.org/2000/svg" version="1.1" viewBox="0 0 521 532.1">
  <!-- Generator: Adobe Illustrator 29.5.0, SVG Export Plug-In . SVG Version: 2.1.0 Build 137)  -->
  <defs>
    <style>
      .st0 {
        fill: #bec8e5;
      }

      .st1 {
        fill: #1a295a;
      }
    </style>
  </defs>
  <circle class="st0" cx="260.5" cy="266.1" r="247.5"/>
  <g id="b">
    <path class="st1" d="M398.2,166.1c-.2-1.3-.8-2.5-1.6-3.4-.3-.3-47.7-47.8-48.5-48.5-1.2-1-2.6-1.4-4-1.6-.7,0,7.2,0-174,0s-7.8,3.5-7.8,7.8v31.5h-15.8c-4.3,0-7.8,3.5-7.8,7.8v267.8c0,4.3,3.5,7.8,7.8,7.8h196.9c4.3,0,7.8-3.5,7.8-7.8v-15.8h39.4c4.3,0,7.8-3.5,7.8-7.8,0-246.6,0-236.7-.2-237.8h0ZM351.1,139.4l20.4,20.4h-20.4s0-20.4,0-20.4ZM335.3,419.6h-181.2v-251.9h7.8v236.3c0,4.3,3.5,7.8,7.8,7.8h165.4v7.8h0ZM177.8,396V128.2h157.5v39.4c0,4.3,3.5,7.8,7.8,7.8h39.4v220.5h-204.7Z"/>
    <path class="st1" d="M358.9,364.5h-157.5c-4.3,0-7.8,3.5-7.8,7.8s3.5,7.8,7.8,7.8h157.5c4.3,0,7.8-3.5,7.8-7.8s-3.5-7.8-7.8-7.8Z"/>
    <path class="st1" d="M358.9,340.9h-157.5c-4.3,0-7.8,3.5-7.8,7.8s3.5,7.8,7.8,7.8h157.5c4.3,0,7.8-3.5,7.8-7.8s-3.5-7.8-7.8-7.8Z"/>
    <path class="st1" d="M358.9,317.2h-94.5c-4.3,0-7.8,3.5-7.8,7.8s3.5,7.8,7.8,7.8h94.5c4.3,0,7.8-3.5,7.8-7.8s-3.5-7.8-7.8-7.8Z"/>
    <circle class="st1" cx="240.8" cy="325.2" r="7.8"/>
    <circle class="st1" cx="264.5" cy="151.9" r="7.8"/>
    <circle class="st1" cx="414" cy="309.4" r="7.8"/>
    <circle class="st1" cx="146.3" cy="96.7" r="7.8"/>
    <circle class="st1" cx="106.9" cy="214.9" r="7.8"/>
    <circle class="st1" cx="114.8" cy="396" r="7.8"/>
    <path class="st1" d="M374.7,104.6h31.5v15.8h-31.5v-15.8Z"/>
    <path class="st1" d="M414,104.6h15.8v15.8h-15.8v-15.8Z"/>
    <path class="st1" d="M83.3,317.2h23.6v15.8h-23.6v-15.8Z"/>
    <path class="st1" d="M114.8,317.2h15.8v15.8h-15.8v-15.8Z"/>
    <path class="st1" d="M206.7,222.6c-3.6,2.5-4.6,7.4-2.1,11s7.4,4.6,11,2.1l5.3-3.6v61.6c0,4.3,3.5,7.8,7.8,7.8h102.4c4.3,0,7.8-3.5,7.8-7.8v-62.8l7.9,5c3.7,2.3,8.6,1.2,10.9-2.5s1.2-8.6-2.5-10.9l-72.8-45.7c-2.6-1.7-6-1.6-8.6.2l-49.6,33.8c-1.8,1.2,6.4-4.4-17.6,12h0ZM272.1,285.8v-31.5h15.8v31.5h-15.8ZM278.5,192.8l44.7,28.2v64.9h-19.7v-39.4c0-4.3-3.5-7.8-7.8-7.8h-31.5c-4.3,0-7.8,3.5-7.8,7.8v39.4h-19.7v-64.5l41.9-28.6h0Z"/>
    <path class="st1" d="M201.4,159.8h39.4c4.3,0,7.8-3.5,7.8-7.8s-3.5-7.8-7.8-7.8h-39.4c-4.3,0-7.8,3.5-7.8,7.8s3.5,7.8,7.8,7.8Z"/>
    <path class="st1" d="M201.4,183.4h39.4c4.3,0,7.8-3.5,7.8-7.8s-3.5-7.8-7.8-7.8h-39.4c-4.3,0-7.8,3.5-7.8,7.8s3.5,7.8,7.8,7.8Z"/>
    <path class="st1" d="M106.9,120.4c-13,0-23.6,10.6-23.6,23.6s10.6,23.6,23.6,23.6,23.6-10.6,23.6-23.6-10.6-23.6-23.6-23.6ZM106.9,151.9c-4.3,0-7.8-3.5-7.8-7.8s3.5-7.8,7.8-7.8,7.8,3.5,7.8,7.8-3.5,7.8-7.8,7.8Z"/>
    <path class="st1" d="M418,403.9c-10.9,0-19.7,8.8-19.7,19.7s8.8,19.7,19.7,19.7,19.7-8.8,19.7-19.7-8.8-19.7-19.7-19.7ZM418,427.5c-2.2,0-3.9-1.8-3.9-3.9s1.8-3.9,3.9-3.9,3.9,1.8,3.9,3.9-1.8,3.9-3.9,3.9Z"/>
  </g>
</svg>