<?xml version="1.0" encoding="UTF-8"?>
<svg id="svg1458" xmlns="http://www.w3.org/2000/svg" version="1.1" xmlns:svg="http://www.w3.org/2000/svg" viewBox="0 0 516 507">
  <!-- Generator: Adobe Illustrator 29.5.0, SVG Export Plug-In . SVG Version: 2.1.0 Build 137)  -->
  <defs>
    <style>
      .st0 {
        fill: none;
        stroke: #000;
        stroke-linecap: round;
        stroke-linejoin: round;
        stroke-width: 5px;
      }

      .st1 {
        fill: #bec8e5;
      }
    </style>
  </defs>
  <circle class="st1" cx="265.3" cy="258.3" r="233.6"/>
  <g>
    <g>
      <path class="st0" d="M164.4,138h-14.5c-3.6,0-6.5,2.9-6.5,6.5v34.1"/>
      <path class="st0" d="M143.3,201.5v212.8c0,3.6,2.9,6.5,6.5,6.5h188.9c3.6,0,6.5-2.9,6.5-6.5v-14.5"/>
      <path class="st0" d="M366.3,378.7h14.5c3.6,0,6.5-2.9,6.5-6.5v-218.4"/>
      <path class="st0" d="M387.3,130.9v-28.4c0-3.6-2.9-6.5-6.5-6.5h-188.9c-3.6,0-6.5,2.9-6.5,6.5v14.5"/>
    </g>
    <path class="st0" d="M304.6,399.7h55.2c3.6,0,6.5-2.9,6.5-6.5v-236c0-1.7-.7-3.4-1.9-4.6l-33.7-33.7c-1.2-1.2-2.9-1.9-4.6-1.9h-155.1c-3.6,0-6.5,2.9-6.5,6.5v269.7c0,3.6,2.9,6.5,6.5,6.5h110.8"/>
    <g>
      <g>
        <line class="st0" x1="296.1" y1="164.7" x2="242.5" y2="164.7"/>
        <line class="st0" x1="242.5" y1="143.7" x2="296.1" y2="143.7"/>
      </g>
      <path class="st0" d="M334.9,373h-59.2c-1.1,0-2-.9-2-2v-17.1c0-1.1.9-2,2-2h59.2c1.1,0,2,.9,2,2v17.1c0,1.1-.9,2-2,2Z"/>
      <g>
        <line class="st0" x1="249.9" y1="373" x2="193.8" y2="373"/>
        <line class="st0" x1="193.8" y1="351.9" x2="249.9" y2="351.9"/>
      </g>
      <line class="st0" x1="193.8" y1="192.8" x2="336.9" y2="192.8"/>
      <line class="st0" x1="193.8" y1="214.5" x2="336.9" y2="214.5"/>
      <line class="st0" x1="193.8" y1="236.2" x2="211.7" y2="236.2"/>
      <line class="st0" x1="226.8" y1="236.2" x2="336.9" y2="236.2"/>
      <line class="st0" x1="193.8" y1="258" x2="336.9" y2="258"/>
      <line class="st0" x1="193.8" y1="279.7" x2="336.9" y2="279.7"/>
      <line class="st0" x1="193.8" y1="301.5" x2="336.9" y2="301.5"/>
      <line class="st0" x1="193.8" y1="323.2" x2="336.9" y2="323.2"/>
    </g>
    <circle class="st0" cx="209.5" cy="154.2" r="15.7"/>
    <path class="st0" d="M364.4,152.6l-33.7-33.7c-.6-.6-1.2-1-1.9-1.3v30.4c0,3.6,2.9,6.5,6.5,6.5h30.4c-.3-.7-.8-1.4-1.3-1.9Z"/>
  </g>
</svg>