<?xml version="1.0" encoding="UTF-8"?>
<svg id="Layer_1" xmlns="http://www.w3.org/2000/svg" version="1.1" viewBox="0 0 512 512">
  <!-- Generator: Adobe Illustrator 29.5.0, SVG Export Plug-In . SVG Version: 2.1.0 Build 137)  -->
  <defs>
    <style>
      .st0 {
        fill: #1a295a;
      }
    </style>
  </defs>
  <path class="st0" d="M501.5,277.9c-8.9-11.1-22.3-18.3-36.6-19.6-15.9-1.5-32.2,4.1-46,15.9l-63.2,50.2-9.4,7.6c-1.7-5.5-4.7-11.5-10-16-6.3-5.3-14.4-7.5-24.2-6.4h-61.3c-15.2-13.9-32.8-20.8-52.5-20.6-34.7.5-75.1,23.6-120.1,68.8l-20.1-22.6c-2.6-2.9-7-3.1-9.9-.6l-36.8,32.8c-1.4,1.2-2.2,3-2.3,4.8-.1,1.9.5,3.7,1.8,5.1l110,123.3c1.2,1.4,3,2.2,4.8,2.3.1,0,.3,0,.4,0,1.7,0,3.4-.6,4.7-1.8l36.8-32.8c1.4-1.2,2.2-3,2.3-4.8.1-1.9-.5-3.7-1.8-5.1l-18-20.1c124.6.1,186.9.1,186.9.1,1.8,0,3.5-.7,4.8-1.9,106-99.5,159.1-149.2,159.1-149.2,2.7-2.5,3-6.6.7-9.5h0ZM126.6,486.1l-100.7-112.9,26.3-23.5,100.7,112.9-26.3,23.5ZM334.2,424.5c-13.8,0-79.4,0-196.6-.1l-50.1-56.1c42.5-42.8,79.8-64.8,111-65.2,16.7-.2,31.7,6,44.6,18.6,1.3,1.3,3.1,2,4.9,2h64.5c.3,0,.6,0,.9,0,6-.7,10.5.3,13.9,3.1,5.1,4.3,6.6,11.8,7,16-.1,10.1-9,18.5-19.4,18.5h-94.1c-3.9,0-7,3.1-7,7s3.1,7,7,7h94.1c15.9,0,29.6-11.5,32.7-26.4l16.9-13.5,63.3-50.3c0,0,.1-.1.2-.2,11.1-9.4,23.4-13.8,35.7-12.7,8.4.8,16.3,4.3,22.5,9.8-15.5,14.5-66.1,62-151.9,142.5h0ZM20.4,169.4l27.3,10.6c1.9,6.1,4.4,12.1,7.3,17.8l-11.8,26.8c-1.2,2.6-.6,5.7,1.5,7.8l23.1,23.1c2,2,5.1,2.6,7.8,1.5l26.8-11.9c5.7,2.9,11.6,5.4,17.8,7.4l10.6,27.3c1,2.7,3.6,4.5,6.5,4.5h32.6c2.9,0,5.5-1.8,6.5-4.5l10.6-27.3c6.1-1.9,12.1-4.4,17.8-7.4l26.8,11.9c2.6,1.2,5.7.6,7.8-1.4l23.1-23.1c2-2.1,2.6-5.1,1.5-7.8l-11.9-26.8c3-5.7,5.4-11.6,7.4-17.8l27.3-10.6c2.7-1,4.5-3.6,4.5-6.5v-32.6c0-2.9-1.8-5.5-4.5-6.5l-27.3-10.6c-2-6.2-4.4-12.1-7.4-17.8l11.9-26.8c1.2-2.7.6-5.7-1.5-7.8l-23.1-23.1c-2-2-5.1-2.6-7.8-1.5l-26.8,11.9c-5.7-3-11.6-5.4-17.8-7.3l-10.6-27.3c-1-2.7-3.6-4.5-6.5-4.5h-32.6c-2.9,0-5.5,1.8-6.5,4.5l-10.6,27.3c-6.1,1.9-12.1,4.4-17.8,7.3l-26.8-11.8c-2.7-1.2-5.7-.6-7.8,1.5l-23.1,23.1c-2,2-2.6,5.1-1.5,7.8l11.9,26.8c-3,5.7-5.4,11.6-7.3,17.8l-27.3,10.6c-2.7,1-4.5,3.6-4.5,6.5v32.6c0,2.9,1.8,5.5,4.5,6.5h0ZM29.9,135l26-10.1c2.1-.8,3.6-2.5,4.2-4.7,2.1-7.4,5-14.5,8.8-21.2,1.1-1.9,1.2-4.2.3-6.3l-11.3-25.5,16.3-16.3,25.6,11.3c2,.9,4.3.8,6.3-.3,6.7-3.8,13.8-6.7,21.2-8.8,2.1-.6,3.8-2.2,4.7-4.2l10.1-26h23l10.1,26c.8,2.1,2.5,3.6,4.6,4.2,7.4,2.1,14.5,5,21.2,8.8,1.9,1.1,4.2,1.2,6.3.3l25.5-11.3,16.3,16.3-11.3,25.5c-.9,2-.8,4.3.3,6.3,3.7,6.6,6.7,13.8,8.8,21.2.6,2.1,2.2,3.8,4.2,4.6l26,10.1v23l-26.1,10.1c-2.1.8-3.6,2.5-4.2,4.6-2.1,7.4-5,14.5-8.8,21.2-1.1,1.9-1.2,4.2-.3,6.3l11.3,25.5-16.3,16.3-25.5-11.3c-2-.9-4.4-.8-6.3.3-6.6,3.8-13.8,6.7-21.2,8.8-2.1.6-3.9,2.2-4.6,4.2l-10.1,26.1h-23l-10.1-26c-.8-2.1-2.5-3.6-4.6-4.2-7.4-2.1-14.6-5.1-21.2-8.8-1.9-1.1-4.2-1.2-6.3-.3l-25.5,11.3-16.3-16.3,11.3-25.5c.9-2,.8-4.4-.3-6.3-3.8-6.6-6.7-13.8-8.8-21.2-.6-2.1-2.2-3.9-4.2-4.6l-26-10.1v-23h0ZM153.5,213.6c37,0,67.1-30.1,67.1-67.1s-30.1-67.1-67.1-67.1-67.1,30.1-67.1,67.1,30.1,67.1,67.1,67.1h0ZM153.5,93.4c29.3,0,53.1,23.8,53.1,53.1s-23.8,53.1-53.1,53.1-53.1-23.8-53.1-53.1,23.8-53.1,53.1-53.1ZM331.3,113.2l15.7,6.1c1,3.1,2.3,6.1,3.8,9l-6.8,15.4c-1.2,2.6-.6,5.7,1.5,7.8l14.3,14.2c2,2,5.1,2.6,7.8,1.4l15.4-6.8c2.9,1.5,5.9,2.7,9,3.8l6.1,15.7c1,2.7,3.6,4.5,6.5,4.5h20.1c2.9,0,5.5-1.8,6.5-4.5l6.1-15.7c3.1-1,6.1-2.3,9-3.8l15.4,6.8c2.6,1.2,5.7.6,7.8-1.5l14.2-14.2c2-2,2.6-5.1,1.5-7.8l-6.8-15.4c1.4-2.9,2.7-5.9,3.7-9l15.7-6.1c2.7-1,4.5-3.6,4.5-6.5v-20.1c0-2.9-1.8-5.5-4.5-6.5l-15.7-6.1c-1-3.1-2.3-6.1-3.7-9l6.8-15.4c1.2-2.6.6-5.7-1.5-7.8l-14.2-14.3c-2-2-5.1-2.6-7.8-1.5l-15.4,6.8c-2.9-1.5-5.9-2.7-9-3.8l-6.1-15.7c-1-2.7-3.6-4.5-6.5-4.5h-20.1c-2.9,0-5.5,1.8-6.5,4.5l-6.1,15.7c-3.1,1-6.1,2.3-9,3.8l-15.4-6.8c-2.6-1.2-5.7-.6-7.8,1.5l-14.3,14.3c-2,2-2.6,5.1-1.5,7.8l6.8,15.4c-1.5,2.9-2.7,5.9-3.8,9l-15.7,6.1c-2.7,1-4.5,3.6-4.5,6.5v20.1c0,2.9,1.8,5.5,4.5,6.5h0ZM340.9,91.4l14.4-5.6c2-.8,3.6-2.5,4.2-4.6,1.2-4.3,3-8.6,5.2-12.5,1.1-1.9,1.2-4.2.3-6.3l-6.2-14.1,7.5-7.5,14.1,6.2c2,.9,4.4.8,6.3-.3,4-2.2,8.2-4,12.5-5.2,2.1-.6,3.9-2.2,4.6-4.2l5.5-14.4h10.6l5.6,14.4c.8,2,2.5,3.6,4.6,4.2,4.3,1.2,8.5,3,12.5,5.2,1.9,1.1,4.2,1.2,6.3.3l14.1-6.2,7.5,7.5-6.2,14.1c-.9,2-.8,4.3.3,6.2,2.2,3.9,4,8.1,5.2,12.5.6,2.1,2.1,3.8,4.2,4.6l14.4,5.6v10.5l-14.4,5.6c-2,.8-3.6,2.5-4.2,4.6-1.2,4.4-3,8.6-5.2,12.5-1.1,1.9-1.2,4.2-.3,6.3l6.2,14.1-7.5,7.4-14.1-6.2c-2-.9-4.3-.8-6.2.3-4,2.2-8.2,4-12.5,5.2-2.1.6-3.8,2.1-4.6,4.2l-5.6,14.4h-10.6l-5.5-14.4c-.8-2.1-2.5-3.6-4.6-4.2-4.3-1.2-8.5-3-12.5-5.2-1.9-1.1-4.2-1.2-6.3-.3l-14.1,6.2-7.5-7.4,6.2-14.1c.9-2,.8-4.3-.3-6.3-2.2-4-4-8.2-5.2-12.5-.6-2.1-2.1-3.8-4.2-4.6l-14.4-5.6v-10.5h0ZM414.5,140.8c24.3,0,44.1-19.8,44.1-44.1s-19.8-44.1-44.1-44.1-44.1,19.8-44.1,44.1,19.8,44.1,44.1,44.1ZM414.5,66.5c16.6,0,30.1,13.5,30.1,30.1s-13.5,30.1-30.1,30.1-30.1-13.5-30.1-30.1,13.5-30.1,30.1-30.1ZM291.1,205.9l4.5,10.2c-.8,1.6-1.5,3.3-2.1,5l-10.4,4c-2.7,1-4.5,3.6-4.5,6.5v14.5c0,2.9,1.8,5.5,4.5,6.5l10.4,4c.6,1.7,1.3,3.4,2.1,5l-4.5,10.2c-1.2,2.6-.6,5.7,1.5,7.8l10.2,10.2c2,2,5.1,2.6,7.8,1.5l10.2-4.5c1.6.8,3.3,1.5,5,2.1l4,10.4c1,2.7,3.6,4.5,6.5,4.5h14.5c2.9,0,5.5-1.8,6.5-4.5l4-10.4c1.7-.6,3.4-1.3,5-2.1l10.2,4.5c2.6,1.2,5.7.6,7.8-1.5l10.2-10.2c2-2,2.6-5.1,1.5-7.8l-4.5-10.2c.8-1.6,1.5-3.3,2.1-5l10.4-4c2.7-1,4.5-3.6,4.5-6.5v-14.5c0-2.9-1.8-5.5-4.5-6.5l-10.4-4c-.6-1.7-1.3-3.4-2.1-5l4.5-10.2c1.2-2.6.6-5.7-1.5-7.8l-10.2-10.2c-2-2-5.1-2.6-7.8-1.4l-10.2,4.5c-1.6-.8-3.3-1.5-5-2.1l-4-10.4c-1-2.7-3.6-4.5-6.5-4.5h-14.5c-2.9,0-5.5,1.8-6.5,4.5l-4,10.4c-1.7.6-3.4,1.3-5,2.1l-10.2-4.5c-2.6-1.2-5.7-.6-7.8,1.4l-10.2,10.2c-2,2-2.6,5.1-1.5,7.8h0ZM305.9,228.4c.9-3,2.1-5.9,3.6-8.6,1.1-1.9,1.2-4.2.3-6.2l-3.9-8.9,3.5-3.4,8.9,3.9c2,.9,4.4.8,6.3-.3,2.6-1.5,5.5-2.7,8.6-3.6,2.1-.6,3.8-2.2,4.6-4.2l3.5-9.1h4.9l3.5,9.1c.8,2.1,2.5,3.6,4.6,4.2,3.1.9,6,2.1,8.6,3.6,1.9,1.1,4.3,1.2,6.3.3l8.9-3.9,3.5,3.4-3.9,8.9c-.9,2-.8,4.4.3,6.3,1.5,2.7,2.7,5.5,3.5,8.5.6,2.1,2.2,3.9,4.2,4.6l9.1,3.5v4.9l-9.1,3.5c-2.1.8-3.6,2.5-4.2,4.6-.8,3-2,5.9-3.5,8.5-1.1,1.9-1.2,4.3-.3,6.3l3.9,8.9-3.5,3.5-8.9-3.9c-2-.9-4.4-.8-6.3.3-2.7,1.5-5.5,2.7-8.5,3.5-2.1.6-3.9,2.2-4.7,4.2l-3.5,9.1h-4.9l-3.5-9.1c-.8-2.1-2.5-3.6-4.6-4.2-3-.8-5.9-2-8.5-3.5-1.9-1.1-4.3-1.2-6.3-.3l-8.9,3.9-3.5-3.5,3.9-8.9c.9-2,.8-4.3-.3-6.2-1.5-2.7-2.7-5.6-3.6-8.6-.6-2.1-2.2-3.8-4.2-4.6l-9.1-3.5v-4.9l9.1-3.5c2-.8,3.6-2.5,4.2-4.6h0ZM343.6,269.7c17,0,30.8-13.8,30.8-30.8s-13.8-30.8-30.8-30.8-30.8,13.8-30.8,30.8,13.8,30.8,30.8,30.8ZM343.6,222.2c9.2,0,16.8,7.5,16.8,16.8s-7.5,16.8-16.8,16.8-16.8-7.5-16.8-16.8,7.5-16.8,16.8-16.8ZM118.6,152.5c-2.7-2.7-2.7-7.2,0-9.9s7.2-2.7,9.9,0l14.3,14.3,35.6-35.6c2.7-2.7,7.2-2.7,9.9,0,2.7,2.7,2.7,7.2,0,9.9l-40.5,40.5c-1.4,1.4-3.2,2.1-4.9,2.1s-3.6-.7-4.9-2.1l-19.3-19.3h0Z"/>
</svg>