<svg id="Layer_1" viewBox="0 0 512 512" xmlns="http://www.w3.org/2000/svg" data-name="Layer 1"><path d="m497.289 325.504c-9.733-16.858-31.369-22.654-48.228-12.921l-75.305 43.477c-9.098 5.252-18.453 6.484-28.599 3.765l-2.27-.608c5.894-4.539 10.044-11.119 11.956-18.255 4.209-15.71-2.318-34.504-22.94-40.03l-106.778-28.612c-13.19-3.534-25.877-1.864-37.704 4.963l-97.218 56.129-6.109-10.582c-3.143-5.443-8.234-9.342-14.339-10.977-6.104-1.637-12.462-.805-17.905 2.337l-30.065 17.358c-5.443 3.143-9.342 8.235-10.978 14.338s-.805 12.462 2.338 17.906l72.985 126.414c3.143 5.444 8.234 9.343 14.338 10.978 2.046.548 4.119.819 6.179.819 4.084 0 8.108-1.067 11.728-3.157l30.065-17.358c11.271-6.507 15.146-20.972 8.64-32.244l-6.109-10.582 37.766-21.804 125.93 33.743c5.634 1.51 11.193 2.263 16.663 2.263 10.613 0 20.886-2.838 30.688-8.498l122.349-70.638c16.858-9.733 22.655-31.368 12.923-48.227zm-354.849 145.593-30.065 17.358c-2.668 1.541-5.795 1.944-8.801 1.139-3.007-.806-5.511-2.719-7.051-5.387l-72.985-126.415c-1.541-2.668-1.945-5.793-1.14-8.8.806-3.007 2.719-5.512 5.387-7.052l30.065-17.358c1.771-1.022 3.742-1.544 5.747-1.544 1.017 0 2.041.134 3.053.405 3.008.806 5.512 2.719 7.052 5.386l72.985 126.415c3.199 5.542 1.294 12.653-4.247 15.852zm335.926-107.759-122.349 70.638c-11.997 6.927-24.864 8.622-38.246 5.036l-128.33-34.387c-1.534-.411-3.174-.197-4.553.599l-39.918 23.046-48.767-84.466 97.218-56.129c9.098-5.252 18.453-6.483 28.599-3.765l106.778 28.612c13.691 3.669 17.125 15.367 14.455 25.333s-11.494 18.378-25.185 14.711l-75.354-20.191c-3.201-.86-6.49 1.041-7.349 4.243-.857 3.201 1.042 6.491 4.243 7.348l75.354 20.191.078.021 27.011 7.237c13.192 3.535 25.877 1.865 37.704-4.963l75.305-43.477c11.127-6.424 25.409-2.6 31.835 8.529 6.425 11.128 2.598 25.41-8.53 31.834zm-409.169 3.614c1.656 2.87.674 6.54-2.196 8.196-.945.545-1.977.805-2.994.805-2.074 0-4.091-1.076-5.202-3.001l-7.682-13.306c-1.656-2.87-.674-6.54 2.196-8.196 2.872-1.656 6.54-.672 8.196 2.196zm174.737-138.06h42.202v25.869c0 9.789 7.964 17.753 17.753 17.753h106.487c9.789 0 17.753-7.964 17.753-17.753v-25.869h42.203c3.313 0 6-2.687 6-6 0-48.166-28.753-91.114-72.47-109.696 9.623-10.956 15.477-25.3 15.477-40.994 0-34.301-27.905-62.207-62.206-62.207s-62.207 27.906-62.207 62.207c0 15.694 5.854 30.038 15.478 40.994-43.717 18.583-72.47 61.53-72.47 109.696 0 3.313 2.687 6 6 6zm135.373-59.292h-44.349v-3.663c0-4.727 3.846-8.573 8.572-8.573h27.204c4.727 0 8.572 3.846 8.572 8.573v3.663zm14.111 12v10.038h-72.571v-10.038zm-78.571 22.038h84.571c3.313 0 6-2.687 6-6v-16.038h14.952v17.385l-63.237 21.17-63.238-21.17v-17.385h14.952v16.038c0 3.313 2.687 6 6 6zm95.529 56.875h-106.487c-3.172 0-5.753-2.581-5.753-5.753v-41.701l57.093 19.112c.617.207 1.261.311 1.904.311s1.287-.104 1.904-.311l57.092-19.112v41.701c0 3.172-2.581 5.753-5.753 5.753zm-53.243-238.518c27.684 0 50.206 22.522 50.206 50.207s-22.522 50.207-50.206 50.207-50.207-22.522-50.207-50.207 22.522-50.207 50.207-50.207zm-36.918 100.236c10.334 7.646 23.105 12.177 36.918 12.177s26.584-4.531 36.918-12.177c40.287 14.755 67.75 51.976 70.115 94.66h-36.037v-7.849l.146-.049c2.446-.819 4.096-3.11 4.096-5.689v-27.704c0-3.313-2.687-6-6-6h-35.063v-3.663c0-11.344-9.229-20.573-20.572-20.573h-27.204c-11.344 0-20.572 9.229-20.572 20.573v3.663h-35.063c-3.313 0-6 2.687-6 6v27.704c0 2.58 1.649 4.871 4.096 5.689l.146.049v7.849h-36.036c2.365-42.684 29.828-79.905 70.115-94.66zm-277.41-16.626 7.448 1c.854 2.498 1.868 4.94 3.033 7.312l-4.559 5.974c-2.679 3.508-2.708 8.244-.072 11.787 4.448 5.977 9.734 11.262 15.711 15.711 3.542 2.634 8.277 2.604 11.784-.072l5.979-4.563c2.372 1.164 4.813 2.177 7.307 3.031l1.002 7.452c.587 4.376 3.918 7.747 8.287 8.385 3.686.539 7.396.808 11.105.808 3.71 0 7.42-.269 11.104-.808 4.369-.639 7.699-4.008 8.286-8.384l1.002-7.453c2.495-.854 4.937-1.867 7.308-3.031l5.979 4.563c3.51 2.676 8.244 2.706 11.786.069 5.977-4.449 11.263-9.734 15.711-15.71 2.634-3.542 2.604-8.277-.073-11.784l-4.562-5.979c1.164-2.371 2.177-4.813 3.031-7.309l7.452-1.001c4.375-.588 7.744-3.918 8.384-8.289 1.077-7.371 1.077-14.843 0-22.209-.64-4.368-4.009-7.698-8.384-8.285l-7.45-1.001c-.854-2.498-1.868-4.941-3.032-7.312l4.559-5.974c2.68-3.509 2.709-8.246.072-11.787-4.448-5.976-9.733-11.261-15.709-15.71-3.544-2.636-8.279-2.607-11.785.071l-5.979 4.563c-2.372-1.164-4.813-2.177-7.308-3.031l-1.002-7.452c-.587-4.377-3.918-7.747-8.286-8.385-7.369-1.077-14.842-1.077-22.207 0-4.37.638-7.702 4.007-8.289 8.384l-1.002 7.453c-2.495.854-4.937 1.867-7.308 3.031l-5.978-4.562c-3.51-2.679-8.246-2.708-11.786-.071-5.979 4.449-11.264 9.735-15.712 15.711-2.633 3.54-2.604 8.274.072 11.784l4.562 5.978c-1.164 2.372-2.178 4.813-3.032 7.309l-7.45 1c-4.378.588-7.747 3.919-8.385 8.288-1.077 7.372-1.077 14.844 0 22.206.638 4.37 4.007 7.701 8.385 8.29zm3.271-27.116 9.585-1.288c2.392-.321 4.358-2.044 4.991-4.374 1.129-4.155 2.792-8.164 4.943-11.917 1.201-2.094 1.029-4.705-.436-6.625l-5.871-7.692c3.191-4.065 6.855-7.729 10.924-10.923l7.693 5.871c1.919 1.464 4.529 1.638 6.625.435 3.748-2.15 7.757-3.812 11.914-4.942 2.329-.632 4.053-2.599 4.374-4.991l1.288-9.586c5.133-.617 10.313-.617 15.446 0l1.288 9.586c.321 2.393 2.045 4.359 4.374 4.992 4.152 1.127 8.161 2.79 11.915 4.942 2.097 1.202 4.706 1.03 6.624-.436l7.694-5.871c4.065 3.192 7.729 6.856 10.922 10.923l-5.868 7.69c-1.466 1.92-1.637 4.532-.435 6.626 2.149 3.745 3.812 7.754 4.942 11.917.632 2.33 2.599 4.053 4.991 4.374l9.584 1.288c.617 5.131.616 10.313 0 15.447l-9.586 1.287c-2.392.321-4.358 2.045-4.991 4.375-1.129 4.157-2.792 8.166-4.942 11.916-1.201 2.095-1.029 4.705.436 6.625l5.87 7.694c-3.191 4.065-6.855 7.729-10.923 10.922l-7.694-5.871c-1.918-1.464-4.529-1.636-6.624-.435-3.75 2.15-7.759 3.812-11.915 4.941-2.329.633-4.053 2.6-4.374 4.992l-1.288 9.587c-5.129.618-10.31.618-15.446 0l-1.288-9.587c-.321-2.393-2.045-4.359-4.374-4.992-4.151-1.127-8.16-2.79-11.914-4.942-2.096-1.201-4.705-1.029-6.624.435l-7.694 5.872c-4.067-3.192-7.731-6.856-10.923-10.922l5.868-7.69c1.465-1.92 1.637-4.531.435-6.626-2.151-3.749-3.813-7.758-4.941-11.917-.633-2.33-2.6-4.054-4.992-4.376l-9.583-1.287c-.616-5.13-.616-10.312 0-15.447zm63.755 45.379c20.763 0 37.655-16.893 37.655-37.656s-16.893-37.656-37.655-37.656-37.656 16.893-37.656 37.656 16.893 37.656 37.656 37.656zm0-63.312c14.146 0 25.655 11.509 25.655 25.656s-11.509 25.656-25.655 25.656-25.656-11.509-25.656-25.656 11.51-25.656 25.656-25.656zm0 113.215c-33.776 0-61.256 27.479-61.256 61.256s27.479 61.256 61.256 61.256 61.257-27.479 61.257-61.256-27.479-61.256-61.257-61.256zm0 110.513c-27.16 0-49.256-22.096-49.256-49.256s22.096-49.256 49.256-49.256 49.257 22.096 49.257 49.256-22.097 49.256-49.257 49.256zm31.723-71.787c2.176 2.5 1.913 6.29-.586 8.465l-42.721 37.182c-1.104.96-2.506 1.474-3.939 1.474-.435 0-.872-.047-1.306-.144-1.86-.415-3.412-1.689-4.183-3.432l-11.674-26.428c-1.339-3.031.033-6.574 3.063-7.913 3.036-1.339 6.575.033 7.913 3.064l8.386 18.983 36.581-31.839c2.5-2.177 6.29-1.913 8.465.587z"/></svg>