<?xml version="1.0" encoding="UTF-8"?>
<svg id="Layer_1" xmlns="http://www.w3.org/2000/svg" version="1.1" viewBox="0 0 512 512">
  <!-- Generator: Adobe Illustrator 29.5.0, SVG Export Plug-In . SVG Version: 2.1.0 Build 137)  -->
  <defs>
    <style>
      .st0 {
        fill: #bec8e5;
      }

      .st1 {
        fill: #1a295a;
      }
    </style>
  </defs>
  <circle class="st0" cx="256.5" cy="256" r="247.5"/>
  <path class="st1" d="M184,226.2h155.5v-121.9c0-7.2-5.9-13-13.1-13h-142.3v135h0ZM166.3,404.4l32.6-5.9c2.8-.5,5.5-.5,8.3,0l92,15.9c1.5,0,5.5-.8,7-1.4l93-34.8c5.2-1.9,11.8-6.7,9.7-12.4-.6-1.5-4.2-6.4-5.3-8.1-5.3-7.6-20.8-7.1-39-3.3-.7.4-1.6.6-2.4.5-20.8,4.7-44.8,13.4-61.1,19.3-4,1.5-7.6,2.8-10.7,3.9-.8.3-1.6.3-2.3.1h0l-88-19.4c-2.3-.5-3.8-2.8-3.3-5.1s2.8-3.8,5-3.3l66.9,14.7c3.4.2,6.7-.7,9.5-2.7,2.8-2.1,4.8-5,5.6-8.4h0c1.6-7.6-3.2-15.1-10.8-16.8h0l-64.5-14.2c-5.1-1.1-35.8,6.4-52.4,10.4-2,.5-3.7.9-5.2,1.3l15.4,69.6h0ZM200.4,406.9l-33.8,6.2c-1.3,5.1-5.4,9-10.5,10.1l-26.3,5.9c-7.6,1.6-15.1-3.1-16.8-10.7-5.6-28-13-55.8-18.6-83.8-1.7-7.6,3.1-15.1,10.7-16.8l26.3-5.8c7.6-1.7,15.1,3.1,16.8,10.7l.8,3.8c1.5-.4,3.2-.8,5.1-1.2,17.3-4.2,49.3-12,56.3-10.5l64.5,14.2h0c7.4,1.6,13.6,6.9,16.3,14l56.2-35.5c11.7-7.4,27.1-2.5,33.8,9.2,4.9,8.7,4.1,19.5-2.1,27.4,14.3-1.1,26,.9,31.5,8.8l4.5,6.4c5.8,8.3,2.2,17.7-5.9,23.4-2.1,1.5-4.5,2.7-6.9,3.6l-93,34.8c-2.3.9-8.8,2.3-11,2l-92.4-15.9c-1.8-.4-3.6-.4-5.4,0h0v-.2ZM298.2,366.2c16.6-6,40.6-14.8,62.4-19.4l7.1-4h0c12.7-7.4,10-25.8-3.8-29.7-4-1.2-8.4-.6-11.9,1.6l-59.2,37.4c0,1.3-.2,2.5-.5,3.8h0c-1.1,5-3.9,9.6-7.9,12.7l4.5,1c2.7-.9,5.9-2.1,9.4-3.4h0ZM133.3,320.3l-26.5,5.9c-2.5.6-4.5,3.7-4,6.2,0,.2,0,.4.1.6l18.5,83.1c.8,3.6,3.4,5.2,7,4.5l25.9-5.7c3-.6,4.8-3.6,4.2-6.6l-18.6-83.8c-.7-3-3.6-4.8-6.6-4.2h0ZM326.5,82.6h13.2c11.7,0,21.1,9.5,21.2,21.2v179.6c0,10.9-8.4,20-19.3,21-4,4-9.5,6.2-15.1,6.2h-142.3c-2.3,0-4.5-.9-6.2-2.5h0c-1.6-1.6-2.5-3.9-2.5-6.2V91.4c0-4.8,3.9-8.7,8.8-8.8h142.3ZM347.7,292.9c2.8-2.4,4.5-5.9,4.5-9.6V103.8c0-5.1-3.1-9.7-7.9-11.6,2.4,3.5,3.8,7.8,3.8,12.1v184.6c0,1.3-.1,2.7-.4,4h0ZM339.5,234.8h-155.5v67.2h142.4c7.2,0,13-5.8,13-13v-54.1h0ZM276.3,285c-2.4,0-4.3-1.9-4.3-4.3s1.9-4.3,4.3-4.3h36.8c2.4,0,4.3,1.9,4.3,4.3s-1.9,4.3-4.3,4.3h-36.8ZM276.3,271.8c-2.4,0-4.3-1.8-4.3-4.2s1.8-4.3,4.2-4.3h36.9c2.4,0,4.2,2,4.2,4.3s-1.9,4.2-4.2,4.2h-36.9ZM276.3,258.6c-2.4,0-4.3-1.8-4.3-4.2s1.8-4.3,4.2-4.3h36.9c2.4,0,4.2,2,4.2,4.3s-1.9,4.2-4.2,4.2h-36.9ZM238.1,284.6h18.7v-12.2h-13.6l-6.7,9.8,1.6,2.3h0ZM261,293.2h-59.1c-2.4,0-4.3-1.9-4.3-4.3v-42.9c0-2.4,1.9-4.3,4.3-4.3h59.1c2.3,0,4.3,1.9,4.3,4.3h0v42.9c0,2.3-1.9,4.3-4.2,4.3h0ZM256.8,263.9v-13.5h-21.9l8.4,13.5h13.4ZM235.8,268l-4.3-6.9-4.3,7,4.3,6.4,4.4-6.5h0ZM226.4,253l-1.6-2.6h-18.5v13.5h13.4l6.8-10.9h0ZM227.7,284.5l-7.9-12h-13.5v12.2h21.6s0-.1-.1-.2h0ZM214.2,180.9c5.2-2.1,10.6-3.8,16.1-5.2-.8-4.2-1.2-8.6-1.4-12.9h-19.8c.6,6.3,2.3,12.5,5.1,18.1h0ZM238.8,173.8c5.2-.9,10.5-1.5,15.9-1.7v-9.3h-17c.1,3.8.6,7.4,1.2,11.1h0ZM263.2,172.2c5.3.2,10.6.8,15.9,1.7.6-3.7,1.1-7.4,1.2-11h-17v9.3h0ZM287.4,175.6c5.4,1.4,10.9,3.1,16.1,5.2,2.8-5.7,4.5-11.7,5.1-18h-19.8c-.2,4.3-.6,8.6-1.4,12.8h0ZM298.9,188.2c-4.4-1.7-8.8-3.1-13.4-4.2-2.1,7.6-5.2,15.3-9.5,21.4,9.1-3.3,17.1-9.3,22.9-17.1ZM277.1,182.2c-4.6-.8-9.3-1.3-13.9-1.5v26.1c6.4-4.4,11.5-15.8,13.9-24.6h0ZM254.6,180.7c-4.7.2-9.3.7-13.9,1.5,2.5,8.8,7.6,20.2,13.9,24.6v-26.1ZM232.2,184c-4.5,1.2-9,2.6-13.4,4.2,5.8,7.8,13.8,13.7,22.9,17.1-4.3-6.2-7.4-13.7-9.5-21.4h0ZM219.4,127.9c4.2,1.6,8.6,3,13.1,4.1,2.1-7.3,5.2-14.6,9.3-20.5-8.8,3.3-16.6,8.9-22.4,16.3ZM240.8,133.9c4.5.8,9.1,1.3,13.7,1.5v-25.2c-6.2,4.2-11.2,15.1-13.7,23.7ZM263.2,135.3c4.6-.1,9.2-.6,13.7-1.4-2.5-8.6-7.5-19.5-13.7-23.8v25.2ZM285.3,132.1c4.5-1.1,8.8-2.5,13.1-4.1-5.8-7.5-13.5-13.2-22.4-16.4,4.1,5.9,7.2,13.2,9.3,20.5h0ZM308.2,127c.4.4.7.9.9,1.5,16.7,27.7,7.7,63.8-20,80.5-27.7,16.7-63.8,7.7-80.5-20-16.7-27.7-7.7-63.8,20-80.5,27.2-16.3,62.4-8.1,79.6,18.5ZM303.1,135.3c-5.2,2.1-10.5,3.8-15.9,5.1.8,4.5,1.3,9.1,1.6,13.7h19.8c-.6-6.6-2.4-13-5.5-18.8h0ZM278.8,142.2c-5.2.9-10.4,1.5-15.6,1.7v10.3h17c-.2-4-.6-8-1.3-12h0ZM254.6,143.8c-5.2-.2-10.5-.8-15.6-1.7-.7,4-1.1,8-1.3,12h17v-10.3ZM230.5,140.4c-5.4-1.3-10.7-3-15.9-5.1-3.1,5.9-5,12.3-5.5,18.9h19.8c.2-4.6.7-9.3,1.6-13.8h0Z"/>
</svg>