<?xml version="1.0" encoding="UTF-8"?>
<svg xmlns="http://www.w3.org/2000/svg" version="1.1" viewBox="0 0 357.8 126.7">
  <defs>
    <style>
      .cls-1 {
        fill: #1a295a;
      }

      .cls-2 {
        fill: #a5b7c4;
      }
    </style>
  </defs>
  <!-- Generator: Adobe Illustrator 28.7.3, SVG Export Plug-In . SVG Version: 1.2.0 Build 164)  -->
  <g>
    <g id="Layer_1">
      <g>
        <path class="cls-2" d="M141.6,120v-23.3c0-.2.2-.4.4-.4h4.1c.2,0,.4.2.4.4v8.7c0,.2.2.4.4.4h8.8c.2,0,.4-.2.4-.4v-8.7c0-.2.2-.4.4-.4h4.1c.2,0,.4.2.4.4v23.3c0,.2-.2.4-.4.4h-4.1c-.2,0-.4-.2-.4-.4v-9.8c0-.2-.2-.4-.4-.4h-8.8c-.2,0-.4.2-.4.4v9.8c0,.2-.2.4-.4.4h-4.1c-.2,0-.4-.2-.4-.4"/>
        <path class="cls-2" d="M172.7,96.4h4.1c.2,0,.4.2.4.4v12.6c0,2.1,0,3.4.2,4,.2,1,.7,1.8,1.5,2.4.8.6,1.8.9,3.2.9s2.4-.3,3.1-.8c.7-.6,1.1-1.3,1.3-2.1.1-.8.2-2.2.2-4.1v-12.9c0-.2.2-.4.4-.4h4.1c.2,0,.4.2.4.4v12.2c0,2.9-.1,4.9-.4,6.1-.3,1.2-.7,2.2-1.5,3-.7.8-1.6,1.5-2.8,2-1.2.5-2.7.7-4.6.7s-4-.3-5.2-.8c-1.2-.5-2.1-1.2-2.8-2.1-.7-.8-1.1-1.7-1.4-2.7-.3-1.4-.5-3.4-.5-6.1v-12.4c0-.2.2-.4.4-.4"/>
        <path class="cls-2" d="M203.2,96.4h9.6c1.9,0,3.3,0,4.3.2.9.2,1.8.5,2.5,1,.7.5,1.4,1.2,1.8,2,.5.9.8,1.9.7,3,0,.9-.3,1.8-.7,2.6-.6,1.1-1.5,2-2.7,2.5,1.5.4,2.6,1.2,3.4,2.2.8,1,1.2,2.2,1.2,3.6s-.3,2.2-.8,3.2c-.5,1-1.2,1.9-2.1,2.5-.9.6-2,1-3.3,1.1-.8,0-2.8.1-5.9.2h-8.2v-24ZM208,100.4v5.6h3.2c1.9,0,3.1,0,3.5,0,.8,0,1.5-.4,2-.9.5-.5.7-1.1.7-1.9s-.2-1.3-.6-1.8c-.4-.5-1-.7-1.8-.8-.5,0-1.9,0-4.1,0h-2.8ZM208,109.9v6.4h4.5c1.8,0,2.9,0,3.3-.1.7-.1,1.3-.5,1.8-1,.5-.5.7-1.2.7-2s-.2-1.3-.5-1.8c-.3-.5-.9-.9-1.5-1.1-.7-.2-2.1-.3-4.3-.3h-3.9Z"/>
        <path class="cls-1" d="M140.7,35.8c0,4.7-.6,8.5-1.9,11.5-1.2,3-3.2,5.2-5.8,6.7-2.6,1.4-6,2.2-10.1,2.2s-8.4-1.6-10.8-4.8c-2.4-3.2-3.6-7.6-3.7-13.1v-21.9c0-2.7-.3-4.8-.8-6.3-.5-1.5-1.3-2.6-2.5-3.2-1.2-.6-2.8-1-5-1h-10v2.4h.8c2.4.2,3.9,1,4.5,2.4.7,1.4,1,3.3,1,5.6v19.5c0,5.3.9,9.7,2.7,13.3,1.8,3.6,4.5,6.2,8.2,8,3.6,1.8,8.2,2.7,13.6,2.7s10.7-1,14.2-2.9c3.5-1.9,6-4.6,7.6-8.2,1.5-3.6,2.3-7.9,2.3-12.9V5.9h-4.5v29.9Z"/>
        <path class="cls-1" d="M220.7,33.9c-2.2-1.2-5.3-2-9.3-2.3,4.2-1,7.4-2.6,9.5-4.8,2.1-2.2,3.1-4.5,3.1-6.8s-.8-5.7-2.5-7.6c-1.7-1.9-3.9-3.3-6.6-4.2-2.7-.9-5.6-1.6-8.7-1.8-3.1-.3-6.1-.4-8.9-.4h-24.5v2.4h.9c2.7,0,4.5.7,5.2,2.2.8,1.5,1.1,3.4,1.1,5.8v42.6h20c3.2,0,6.4-.2,9.6-.6,3.2-.4,6.1-1.1,8.7-2.2,2.6-1,4.7-2.5,6.2-4.5,1.5-1.9,2.3-4.4,2.3-7.5s-.5-4-1.4-5.8c-.9-1.8-2.5-3.3-4.7-4.5M210.1,52.9c-2.6,1.9-6.5,2.9-11.5,2.9s-2.8,0-4-.3c-1.2-.2-2.2-.4-2.8-.5V9.7c1.3-.3,2.4-.4,3.2-.5.8,0,1.6,0,2.2,0,2.4,0,4.6.3,6.8,1,2.1.6,3.9,1.7,5.3,3.2,1.4,1.5,2,3.6,2,6.3s-.5,4.5-1.6,6.1c-1.1,1.5-2.6,2.6-4.5,3.3-1.9.7-4.1,1-6.6,1,0,1.9,1.6,3.6,3.8,3.8,3.3.4,5.9,1.2,7.8,2.6,2.6,1.8,3.9,4.6,3.9,8.3s-1.3,6.3-4,8.2"/>
        <path class="cls-1" d="M301.2,48.9l-20.3-42.9h-4.1l-26.8,53.1h4.7l19.9-39.2,10.5,22.2h-15c0,2.5,1.8,4,4.3,4h12.6l1.4,2.9c1.5,3.1,3.2,5.3,5.2,6.8,2,1.5,4.1,2.5,6.4,2.9,2.2.5,4.3.7,6.3.7s1.4,0,2.3-.1c.9,0,1.6-.2,2-.3v-2c-2.1-.2-3.9-1-5.4-2.4-1.6-1.4-2.9-3.3-4-5.6"/>
        <path class="cls-1" d="M353.4,56.6c-2.7,0-4.5-.7-5.2-2.2-.8-1.5-1.1-3.4-1.1-5.8V5.9h-11.8v42.6c0,2.7.2,4.8.7,6.3.5,1.5,1.3,2.6,2.5,3.2,1.2.6,2.8.9,5,.9h10.9v-2.4h-.9Z"/>
        <path class="cls-1" d="M56.3,12.9c-6.3-4.7-15.6-7-28.1-7H3.5v2.4h.9c2.7,0,4.5.7,5.2,2.2.8,1.5,1.1,3.4,1.1,5.8v42.6h11.8V9.7c1.8-.3,3.1-.4,4.1-.5,1,0,2.1,0,3.5,0,4.4,0,8.2,1,11.5,2.9,3.3,1.9,5.9,4.6,7.7,8.1,1.8,3.5,2.8,7.6,2.8,12.3s-.9,9-2.8,12.5c-1.9,3.5-4.5,6.2-7.7,8-3.3,1.9-7,2.8-11.3,2.8h0c-1.3,0-2.4,1-2.4,2.2v1.1h2.7c7.6,0,14-1.1,19.3-3.4,5.2-2.3,9.2-5.4,11.9-9.4,2.7-4,4-8.7,4-14,0-8.1-3.1-14.6-9.4-19.2"/>
        <path class="cls-2" d="M116.5,110h-24.6c-2.5,0-4.5-2-4.5-4.5h29.1v4.5Z"/>
        <path class="cls-2" d="M269.7,110h-24.6v-4.5h29.1c0,2.5-2,4.5-4.5,4.5"/>
      </g>
    </g>
  </g>
</svg>